# xmcd CD database file
#
# Track frame offsets:
#	182
#	27700
#	45007
#	59482
#	76375
#	93330
#	112847
#	133607
#	153080
#	174327
#	192280
#	209357
#	227652
#	248012
#	267222
#	287580
#	307090
#	337222
#
# Disc length: 4717 seconds
#
# Revision: 6
# Processed by: cddbd v1.5.2PL0 Copyright (c) Steve Scherf et al.
# Submitted via: CDex 1.51
#
DISCID=f3126b12
DTITLE=Various Artist - Soul Train - Hall Of Fame - 20th Anniversary (Volume 3)
DYEAR=1994
DGENRE=Soul
TTITLE0=Soul Train Theme (Adapted from "TSOP") - George Duke
TTITLE1=What's Love Got To Do With It - Tina Turner
TTITLE2=Stuck On You - Lionel Richie
TTITLE3=Solid - Ashford and Simpson
TTITLE4=If Only You Knew - Patti LaBelle
TTITLE5=You Are My Lady - Freddie Jackson
TTITLE6=You Give Good Love - Whitney Houston
TTITLE7=Word Up - Cameo
TTITLE8=Freaks Come Out At Night - Whodini
TTITLE9=Fake - Alexander O'Neal
TTITLE10=How Ya Like Me Now - Kool Moe Dee
TTITLE11=Just Coolin' - Levert
TTITLE12=My Prerogative - Bobby Brown
TTITLE13=U Can't Touch This - M.C. Hammer
TTITLE14=O.P.P. - Naughty By Nature
TTITLE15=Power Of Love - Love Power - Luther Vandross
TTITLE16=The Secret Garden (Sweet Seduction Suite) - Quincy Jones (featuring Al B. Sure! - James Ingram - El DeBarge - Barry White)
TTITLE17=Save The Best For Last - Vanessa Williams
EXTD=YEAR: 1994
EXTT0=
EXTT1=
EXTT2=
EXTT3=
EXTT4=
EXTT5=
EXTT6=
EXTT7=
EXTT8=
EXTT9=
EXTT10=
EXTT11=
EXTT12=
EXTT13=
EXTT14=
EXTT15=
EXTT16=
EXTT17=
PLAYORDER=
